<svg width="705" height="165" viewBox="0 0 705 165" fill="none" xmlns="http://www.w3.org/2000/svg">
<g clip-path="url(#clip0_6_2)">
<path d="M92.58 99.68H35.95L25.52 127H0L48.18 1.17999H80.18L128.54 127.01H102.83L92.58 99.69V99.68ZM84.31 77.93L64.18 24.72L44.05 77.93H84.32H84.31Z" fill="#2B2E33"/>
<path d="M220.75 81.53C220.75 109.03 201.16 129.53 175.99 129.53C163.05 129.53 153.16 124.14 146.51 115.87V164.77H122.78V36.05H146.51V47.01C153.16 38.74 163.05 33.53 175.99 33.53C201.16 33.53 220.75 53.84 220.75 81.53ZM197.38 81.35C197.38 65.71 186.78 54.75 171.85 54.75C156.92 54.75 145.96 65.71 145.96 81.35C145.96 96.99 157.46 108.32 171.85 108.32C186.24 108.32 197.38 97.17 197.38 81.35Z" fill="#2B2E33"/>
<path d="M272.6 34.42V57.08C253.19 54.02 242.58 63.01 242.58 87.46V127.01H218.85V36.05H242.58V49.53C247.97 38.93 257.64 34.1 272.6 34.42Z" fill="#2B2E33"/>
<path d="M267.92 13.66C267.92 6.11 274.21 0 282.12 0C290.03 0 296.32 6.11 296.32 13.66C296.32 21.21 290.03 27.68 282.12 27.68C274.21 27.68 267.92 21.57 267.92 13.66ZM269.9 34.42H293.81V127.01H269.9V34.42Z" fill="#2B2E33"/>
<path d="M299.57 1.17999H323.3V127.01H299.57V1.17999Z" fill="#2B2E33"/>
<path d="M379.56 23.64V54.92H437.26V77.03H379.56V127.01H354.93V1.17999H446.43V23.65H379.56V23.64Z" fill="#2B2E33"/>
<path d="M433.31 81.53C433.31 54.21 453.99 33.53 482.03 33.53C510.07 33.53 530.57 54.2 530.57 81.53C530.57 108.86 510.08 129.53 482.03 129.53C453.98 129.53 433.31 108.68 433.31 81.53ZM507.55 81.53C507.55 66.43 497.12 55.11 482.02 55.11C466.92 55.11 456.5 66.44 456.5 81.53C456.5 96.62 466.75 107.96 482.02 107.96C497.29 107.96 507.55 96.63 507.55 81.53Z" fill="#2B2E33"/>
<path d="M583.21 34.79V57.08C563.8 54.02 553.19 63.01 553.19 87.46V127.01H529.46V36.05H553.19V49.53C558.58 38.93 569.01 32.81 583.21 34.79Z" fill="#2B2E33"/>
<path d="M668.24 1.17999V127.01H644.33V115.86C637.86 124.13 627.79 129.52 615.03 129.52C589.86 129.52 570.09 109.02 570.09 81.52C570.09 54.02 589.86 33.52 615.03 33.52C627.79 33.52 637.86 38.73 644.33 47V1.17999H668.24ZM645.05 81.35C645.05 65.71 633.55 54.75 619.16 54.75C604.77 54.75 593.63 65.71 593.63 81.35C593.63 96.99 604.23 108.32 619.16 108.32C634.09 108.32 645.05 97.17 645.05 81.35Z" fill="#2B2E33"/>
<path d="M674.98 113.71C674.98 105.98 681.45 99.69 689.72 99.69C697.99 99.69 704.28 105.98 704.28 113.71C704.28 121.98 697.81 128.45 689.72 128.45C681.63 128.45 674.98 121.98 674.98 113.71Z" fill="#2B2E33"/>
</g>
<defs>
<clipPath id="clip0_6_2">
<rect width="704.28" height="164.76" fill="white"/>
</clipPath>
</defs>
</svg>
